# xmcd
#
# Track frame offsets:
#   150
#   16390
#   34826
#   52914
#   67229
#   83840
#   98951
#   112405
#   131141
#   148586
#   163622
#   180672
#   198644
#   217934
#   231367
#   246367
#   259702
#   276637
#   296887
#   317131
#
# Disc length: 4378 seconds
#
# Revision: 0
# Processed by: cddbd v1.5.2PL0 Copyright (c) Steve Scherf et al.
# Submitted via: Media_Universe 3.0
#
DISCID=43111814
DTITLE=Mouth and MacNeal  - Mouth and MacNeal - Favorieten Expres
DYEAR=2018
DGENRE=New Age
TTITLE0=Mouth and MacNeal - Hey, You Love
TTITLE1=Mouth and MacNeal - How Do You Do_
TTITLE2=Mouth and MacNeal - Hello-A
TTITLE3=Mouth and MacNeal - Tell Me World
TTITLE4=Mouth and MacNeal - I Wanted To Be
TTITLE5=Mouth and MacNeal - Land Of Milk And Honey
TTITLE6=Mouth and MacNeal - Rosianna
TTITLE7=Mouth and MacNeal - You, You
TTITLE8=Mouth and MacNeal - You-Kou-La-Le-Loupi
TTITLE9=Mouth and MacNeal - Bat-Te-Ring-Ram
TTITLE10=Mouth and MacNeal - Minnie, Minnie
TTITLE11=Mouth and MacNeal - Do You Wanna Do It
TTITLE12=Mouth and MacNeal - Let Your Life Lead By Love
TTITLE13=Mouth and MacNeal - Ik Zie Een Ster
TTITLE14=Mouth and MacNeal - Ah, l'amore
TTITLE15=Mouth and MacNeal - I See A Star
TTITLE16=Big Mouth - Uncle
TTITLE17=Maggie MacNeal - When You're Gone
TTITLE18=Maggie MacNeal - Terug Naar De Kust
TTITLE19=Maggie MacNeal - Amsterdam
EXTD=
EXTT0=
EXTT1=
EXTT2=
EXTT3=
EXTT4=
EXTT5=
EXTT6=
EXTT7=
EXTT8=
EXTT9=
EXTT10=
EXTT11=
EXTT12=
EXTT13=
EXTT14=
EXTT15=
EXTT16=
EXTT17=
EXTT18=
EXTT19=
PLAYORDER=
